<svg width="121" height="121" viewBox="0 0 121 121" fill="none" xmlns="http://www.w3.org/2000/svg">
<path fill-rule="evenodd" clip-rule="evenodd" d="M30.25 15.125C30.25 11.1136 31.8435 7.2665 34.68 4.43001C37.5165 1.59352 41.3636 0 45.375 0L105.875 0C109.886 0 113.733 1.59352 116.57 4.43001C119.406 7.2665 121 11.1136 121 15.125V75.625C121 79.6364 119.406 83.4835 116.57 86.32C113.733 89.1565 109.886 90.75 105.875 90.75H45.375C41.3636 90.75 37.5165 89.1565 34.68 86.32C31.8435 83.4835 30.25 79.6364 30.25 75.625V15.125ZM45.375 7.5625C43.3693 7.5625 41.4458 8.35926 40.0275 9.7775C38.6093 11.1957 37.8125 13.1193 37.8125 15.125V75.625C37.8125 77.6307 38.6093 79.5542 40.0275 80.9725C41.4458 82.3907 43.3693 83.1875 45.375 83.1875H105.875C107.881 83.1875 109.804 82.3907 111.222 80.9725C112.641 79.5542 113.438 77.6307 113.438 75.625V15.125C113.438 13.1193 112.641 11.1957 111.222 9.7775C109.804 8.35926 107.881 7.5625 105.875 7.5625H45.375ZM15.125 37.8125C13.1193 37.8125 11.1957 38.6093 9.7775 40.0275C8.35926 41.4458 7.5625 43.3693 7.5625 45.375V105.875C7.5625 107.881 8.35926 109.804 9.7775 111.222C11.1957 112.641 13.1193 113.438 15.125 113.438H75.625C77.6307 113.438 79.5542 112.641 80.9725 111.222C82.3907 109.804 83.1875 107.881 83.1875 105.875V98.3125H90.75V105.875C90.75 109.886 89.1565 113.733 86.32 116.57C83.4835 119.406 79.6364 121 75.625 121H15.125C11.1136 121 7.2665 119.406 4.43001 116.57C1.59352 113.733 0 109.886 0 105.875V45.375C0 41.3636 1.59352 37.5165 4.43001 34.68C7.2665 31.8435 11.1136 30.25 15.125 30.25H22.6875V37.8125H15.125Z" fill="white"/>
</svg>
